<svg width="32" height="32" viewBox="0 0 32 32" fill="none" xmlns="http://www.w3.org/2000/svg">
<rect width="32" height="32" fill="#1E1E1E"/>
<g id="Mobile - Active" clip-path="url(#clip0_1_3)">
<rect width="375" height="667" transform="translate(-289 -548)" fill="#ECF2F8"/>
<g id="Container" filter="url(#filter0_d_1_3)">
<rect x="-265" y="-484" width="327" height="538" rx="10" fill="white"/>
<g id="Content">
<g id="Button Group">
<g id="Share Button">
<g id="Group 3">
<circle id="Oval" cx="16" cy="16" r="16" fill="#ECF2F8"/>
<g id="share(2) 2">
<g id="share(2)">
<path id="Path" d="M24 15.495L17.7663 9.01392V12.8807H16.4409C12.3314 12.8807 9 16.0393 9 19.9358V21.9849L9.58868 21.3733C11.5901 19.2941 14.4221 18.1094 17.3912 18.1094H17.7663V21.9762L24 15.495Z" fill="#6E8098"/>
</g>
</g>
</g>
</g>
</g>
</g>
</g>
<g id="Share Toast">
<path d="M-265 -22H62V44C62 49.5229 57.5229 54 52 54H-255C-260.523 54 -265 49.5229 -265 44V-22Z" fill="#48556A"/>
<g id="Frame 16">
<g id="Frame 21">
<rect width="267" height="32" transform="translate(-235)" fill="#48556A"/>
<g id="Share Button_2">
<g id="Group 3_2">
<circle id="Oval_2" cx="16" cy="16" r="16" fill="#6E8098"/>
<g id="share(2) 2_2">
<g id="share(2)_2">
<path id="Path_2" d="M24 15.495L17.7663 9.01392V12.8807H16.4409C12.3314 12.8807 9 16.0393 9 19.9358V21.9849L9.58868 21.3733C11.5901 19.2941 14.4221 18.1094 17.3912 18.1094H17.7663V21.9762L24 15.495Z" fill="white"/>
</g>
</g>
</g>
</g>
</g>
</g>
</g>
</g>
<defs>
<filter id="filter0_d_1_3" x="-295" y="-484" width="387" height="608" filterUnits="userSpaceOnUse" color-interpolation-filters="sRGB">
<feFlood flood-opacity="0" result="BackgroundImageFix"/>
<feColorMatrix in="SourceAlpha" type="matrix" values="0 0 0 0 0 0 0 0 0 0 0 0 0 0 0 0 0 0 127 0" result="hardAlpha"/>
<feMorphology radius="10" operator="erode" in="SourceAlpha" result="effect1_dropShadow_1_3"/>
<feOffset dy="40"/>
<feGaussianBlur stdDeviation="20"/>
<feColorMatrix type="matrix" values="0 0 0 0 0.788235 0 0 0 0 0.835294 0 0 0 0 0.882353 0 0 0 0.503415 0"/>
<feBlend mode="normal" in2="BackgroundImageFix" result="effect1_dropShadow_1_3"/>
<feBlend mode="normal" in="SourceGraphic" in2="effect1_dropShadow_1_3" result="shape"/>
</filter>
<clipPath id="clip0_1_3">
<rect width="375" height="667" fill="white" transform="translate(-289 -548)"/>
</clipPath>
</defs>
</svg>
